<?xml version="1.0" encoding="UTF-8"?><svg id="a" xmlns="http://www.w3.org/2000/svg" xmlns:xlink="http://www.w3.org/1999/xlink" viewBox="0 0 775.3 640.86"><defs><style>.f{fill:url(#e);}.g{fill:url(#d);}.h{fill:url(#c);}.i{fill:url(#b);}</style><linearGradient id="b" x1="156.12" y1="395.1" x2="591.81" y2="-40.59" gradientTransform="matrix(1, 0, 0, 1, 0, 0)" gradientUnits="userSpaceOnUse"><stop offset="0" stop-color="#9d81f3"/><stop offset=".02" stop-color="#947df1"/><stop offset=".12" stop-color="#686beb"/><stop offset=".22" stop-color="#475de7"/><stop offset=".31" stop-color="#2e53e3"/><stop offset=".39" stop-color="#204de1"/><stop offset=".46" stop-color="#1b4be1"/><stop offset=".55" stop-color="#1e4bdf"/><stop offset=".63" stop-color="#284edb"/><stop offset=".7" stop-color="#3951d4"/><stop offset=".76" stop-color="#5157ca"/><stop offset=".82" stop-color="#705ebe"/><stop offset=".88" stop-color="#9666ae"/><stop offset=".94" stop-color="#c2709c"/><stop offset="1" stop-color="#f57c87"/><stop offset="1" stop-color="#f87d87"/></linearGradient><linearGradient id="c" x1="295.58" y1="222.18" x2="532.06" y2="-14.3" xlink:href="#b"/><linearGradient id="d" x1="109.12" y1="590.54" x2="712.94" y2="-13.28" xlink:href="#b"/><linearGradient id="e" x1="374.94" y1="684.6" x2="739.32" y2="320.22" xlink:href="#b"/></defs><path class="i" d="M168.62,114.88c-12.22,97.79,27.14,146.27,88.85,161.13,254.87,61.36,444.5-211.14,444.99-205.93,3.39,36.52-206.06,317.41-412.23,341.08-21.73,2.5-93.36,18.07-159.62-41.79-95.31-86.1,39.53-266.54,38.02-254.49Z"/><path class="h" d="M631.11,89.47c-94.87,100.52-219.68,114.55-272.75,119.72-15.51,1.51-36.39,1.43-59.29-5.65-14.6-4.51-38.79-11.99-54.78-33.88-16.4-22.47-17.53-51.05-13.55-68.89C244.69,38.23,344.45,4.24,415.96,.25c96.9-5.41,224.84,78.96,215.15,89.22Z"/><path class="g" d="M669.51,36.39c-1.34-3.01,27.48-30.04,58.73-23.15,17.2,3.79,27.52,16.19,30.49,19.76,33.44,40.17,7.54,119.97-2.26,149.08-36.96,109.82-106.24,179.98-142.31,215.72-70.48,69.85-136.63,105.51-156.42,115.76-64.61,33.48-121.08,48.06-153.6,54.78-41.17,8.51-88.63,17.85-148.52,7.34-24.43-4.29-56.16-10.21-89.22-33.32-15.99-11.18-44.63-31.2-58.73-70.02-13.72-37.79-6.19-94.98,.56-92.05,6.17,2.67,25.18,52.12,74.54,77.93,111.25,58.16,271.42,5.83,309.46-9.6,76.07-30.85,131.54-76.4,159.81-99.95,33.41-27.84,56.86-52.81,70.59-68.33,0,0,49.58-56.06,89.22-138.92,0,0,9.58-20.03,14.68-50.82,4.08-24.63,1.42-34.59-3.39-41.79-6.35-9.51-15.86-13.3-18.07-14.12-18.32-6.82-34.62,3.85-35.58,1.69Z"/><path class="f" d="M313.75,622.55c12.59-15.39,130.71-14.27,258.07-117.46,113.2-91.71,156.99-195.39,156.99-195.39,7.91,7.34,6.65,156.53-106.73,249.03-156.42,127.62-313.41,70.02-308.33,63.81Z"/></svg>