<?xml version="1.0" encoding="UTF-8"?><svg id="a" xmlns="http://www.w3.org/2000/svg" xmlns:xlink="http://www.w3.org/1999/xlink" viewBox="0 0 4200.02 640.86"><defs><style>.o{fill:url(#e);}.p{fill:url(#d);}.q{fill:url(#g);}.r{fill:url(#f);}.s{fill:url(#i);}.t{fill:url(#h);}.u{fill:url(#k);}.v{fill:url(#j);}.w{fill:url(#m);}.x{fill:url(#l);}.y{fill:url(#n);}.a`{fill:url(#c);}.aa{fill:url(#b);}</style><linearGradient id="b" x1="156.12" y1="395.1" x2="591.81" y2="-40.59" gradientTransform="matrix(1, 0, 0, 1, 0, 0)" gradientUnits="userSpaceOnUse"><stop offset="0" stop-color="#9d81f3"/><stop offset=".02" stop-color="#947df1"/><stop offset=".12" stop-color="#686beb"/><stop offset=".22" stop-color="#475de7"/><stop offset=".31" stop-color="#2e53e3"/><stop offset=".39" stop-color="#204de1"/><stop offset=".46" stop-color="#1b4be1"/><stop offset=".55" stop-color="#1e4bdf"/><stop offset=".63" stop-color="#284edb"/><stop offset=".7" stop-color="#3951d4"/><stop offset=".76" stop-color="#5157ca"/><stop offset=".82" stop-color="#705ebe"/><stop offset=".88" stop-color="#9666ae"/><stop offset=".94" stop-color="#c2709c"/><stop offset="1" stop-color="#f57c87"/><stop offset="1" stop-color="#f87d87"/></linearGradient><linearGradient id="c" x1="295.58" y1="222.18" x2="532.06" y2="-14.3" xlink:href="#b"/><linearGradient id="d" x1="109.12" y1="590.54" x2="712.94" y2="-13.28" xlink:href="#b"/><linearGradient id="e" x1="374.94" y1="684.6" x2="739.32" y2="320.22" xlink:href="#b"/><linearGradient id="f" x1="2998.51" y1="1225.47" x2="1997.91" y2="-507.61" xlink:href="#b"/><linearGradient id="g" x1="2998.51" y1="1225.47" x2="1997.91" y2="-507.61" xlink:href="#b"/><linearGradient id="h" x1="2998.51" y1="1225.47" x2="1997.91" y2="-507.61" xlink:href="#b"/><linearGradient id="i" x1="2998.51" y1="1225.47" x2="1997.91" y2="-507.61" xlink:href="#b"/><linearGradient id="j" x1="2998.51" y1="1225.47" x2="1997.91" y2="-507.61" xlink:href="#b"/><linearGradient id="k" x1="2998.51" y1="1225.47" x2="1997.91" y2="-507.61" xlink:href="#b"/><linearGradient id="l" x1="2998.51" y1="1225.47" x2="1997.91" y2="-507.61" xlink:href="#b"/><linearGradient id="m" x1="2998.51" y1="1225.47" x2="1997.91" y2="-507.61" xlink:href="#b"/><linearGradient id="n" x1="2998.51" y1="1225.47" x2="1997.91" y2="-507.61" xlink:href="#b"/></defs><g><path class="aa" d="M168.62,114.88c-12.22,97.79,27.14,146.27,88.85,161.13,254.87,61.36,444.5-211.14,444.99-205.93,3.39,36.52-206.06,317.41-412.23,341.08-21.73,2.5-93.36,18.07-159.62-41.79-95.31-86.1,39.53-266.54,38.02-254.49Z"/><path class="a`" d="M631.11,89.47c-94.87,100.52-219.68,114.55-272.75,119.72-15.51,1.51-36.39,1.43-59.29-5.65-14.6-4.51-38.79-11.99-54.78-33.88-16.4-22.47-17.53-51.05-13.55-68.89C244.69,38.23,344.45,4.24,415.96,.25c96.9-5.41,224.84,78.96,215.15,89.22Z"/><path class="p" d="M669.51,36.39c-1.34-3.01,27.48-30.04,58.73-23.15,17.2,3.79,27.52,16.19,30.49,19.76,33.44,40.17,7.54,119.97-2.26,149.08-36.96,109.82-106.24,179.98-142.31,215.72-70.48,69.85-136.63,105.51-156.42,115.76-64.61,33.48-121.08,48.06-153.6,54.78-41.17,8.51-88.63,17.85-148.52,7.34-24.43-4.29-56.16-10.21-89.22-33.32-15.99-11.18-44.63-31.2-58.73-70.02-13.72-37.79-6.19-94.98,.56-92.05,6.17,2.67,25.18,52.12,74.54,77.93,111.25,58.16,271.42,5.83,309.46-9.6,76.07-30.85,131.54-76.4,159.81-99.95,33.41-27.84,56.86-52.81,70.59-68.33,0,0,49.58-56.06,89.22-138.92,0,0,9.58-20.03,14.68-50.82,4.08-24.63,1.42-34.59-3.39-41.79-6.35-9.51-15.86-13.3-18.07-14.12-18.32-6.82-34.62,3.85-35.58,1.69Z"/><path class="o" d="M313.75,622.55c12.59-15.39,130.71-14.27,258.07-117.46,113.2-91.71,156.99-195.39,156.99-195.39,7.91,7.34,6.65,156.53-106.73,249.03-156.42,127.62-313.41,70.02-308.33,63.81Z"/></g><g><g><path d="M1304.47,95.4c8.4,24.6,9,121.2-60,121.2s-72.6-101.4-124.2-101.4c-37.2,0-52.2,42.6-52.2,75,0,53.4,24,81.6,65.4,81.6,18.6,0,40.8-6,66.6-17.4v63c-102.4-30.77-142.4,6.86-139.2,111,0,47.4,10.2,97.2,59.4,97.2,68.4,0,53.4-100.8,127.8-100.8,46.8,0,72,39.6,56.4,121.2h-351c47.94-179.57,48.06-270.47,0-450.6h351Z"/><path d="M1344.05,95.4h90c31.8,0,49.2,21.6,45,77.4-4.85,67.74,21.78,91.27,57,117.6,3.6-3,7.2-5.4,10.8-8.4,28.8-22.8,50.4-47.4,45.6-109.2-4.2-55.8,13.8-77.4,45.6-77.4h90c22.2,108-110.4,159-175.2,207,86.15,58.92,201.56,122.82,184.8,243h-143.4c20.88-80.08,6.27-171.11-58.2-229.2-64.2,58.02-79.5,149.24-58.2,229.2h-143.4c-16.75-120.21,98.64-184.06,184.8-243-65.4-48-197.4-99-175.2-207Z"/><path d="M1911.05,545.4h-145.2c48-179.7,48-270.3,0-450h145.2c72,0,217.8-7.8,217.8,110.4,0,90-84.6,117-138.6,117-45,0-64.2-16.2-87.6-16.2-59.1,4.66-3.72,197.13,8.4,238.8Zm-23.4-341.4c0,45.6,20.4,91.2,60.6,91.2,87.29,.19,89.01-180.54,0-180-40.2,0-60.6,43.8-60.6,88.8Z"/><path d="M2143.85,546c47.94-179.88,48.06-270.78,0-450.6h170.4c-48,83.4-63.6,183.6-63.6,267.6s14.4,162.6,60,162.6c51.6,0,53.4-101.4,124.2-101.4s68.4,97.2,60,121.8h-351Z"/><path d="M2687.45,87.6c130.8,0,207,106.2,207,232.8,.65,310.53-414.69,310.45-414,0,0-126.6,76.2-232.8,207-232.8Zm-75,308.4c176.83,181.06,345.99,51.75,150.6-150.6-64.5-64-159.44-118.19-217.8-66.6-45,45-12.6,137.4,67.2,217.2Z"/><path d="M3048.65,95.4h30c75,0,181.8,6,181.8,100.8,0,81.6-78.6,89.4-117,89.4-60.6,0-94.2-18.6-112.8-18.6-7.2,0-17.4,3-17.4,13.2s10.2,15.6,25.8,18.6c34.2,7.2,69.6,4.2,104.4,8.4,42.6,4.8,90.6,21.6,92.4,91.8,1.2,51.6,19.8,127.8,45,146.4h-106.2c-80.4,0,.6-220.8-127.8-224.4-19.67-.48-33,4.27-33,36.6,0,61.8,18,130.2,34.8,187.8h-145.2c48-180.15,48-270.15,0-450h145.2Zm-23.4,96c0,34.8,18.6,65.4,61.2,65.4s59.4-28.8,59.4-63c-1.84-100.47-118.08-107.73-120.6-2.4Z"/><path d="M3652.84,95.4c8.4,24.6,9,121.2-60,121.2s-72.6-101.4-124.2-101.4c-37.2,0-52.2,42.6-52.2,75,0,53.4,24,81.6,65.4,81.6,18.6,0,40.8-6,66.6-17.4v63c-102.4-30.77-142.4,6.86-139.2,111,0,47.4,10.2,97.2,59.4,97.2,68.4,0,53.4-100.8,127.8-100.8,46.8,0,72,39.6,56.4,121.2h-351c47.94-179.57,48.06-270.47,0-450.6h351Z"/><path d="M3829.83,95.4h30c75,0,181.8,6,181.8,100.8,0,81.6-78.6,89.4-117,89.4-60.6,0-94.2-18.6-112.8-18.6-7.2,0-17.4,3-17.4,13.2s10.2,15.6,25.8,18.6c34.2,7.2,69.6,4.2,104.4,8.4,42.6,4.8,90.6,21.6,92.4,91.8,1.2,51.6,19.8,127.8,45,146.4h-106.2c-80.4,0,.6-220.8-127.8-224.4-19.67-.48-33,4.27-33,36.6,0,61.8,18,130.2,34.8,187.8h-145.2c48-180.15,48-270.15,0-450h145.2Zm-23.4,96c0,34.8,18.6,65.4,61.2,65.4s59.4-28.8,59.4-63c-1.84-100.47-118.08-107.73-120.6-2.4Z"/><path d="M4149.02,451.2c28.2,0,51,22.8,51,51-2.64,67.66-99.37,67.64-102,0,0-28.2,22.8-51,51-51Z"/></g><g><path class="r" d="M1304.47,95.4c8.4,24.6,9,121.2-60,121.2s-72.6-101.4-124.2-101.4c-37.2,0-52.2,42.6-52.2,75,0,53.4,24,81.6,65.4,81.6,18.6,0,40.8-6,66.6-17.4v63c-102.4-30.77-142.4,6.86-139.2,111,0,47.4,10.2,97.2,59.4,97.2,68.4,0,53.4-100.8,127.8-100.8,46.8,0,72,39.6,56.4,121.2h-351c47.94-179.57,48.06-270.47,0-450.6h351Z"/><path class="q" d="M1344.05,95.4h90c31.8,0,49.2,21.6,45,77.4-4.85,67.74,21.78,91.27,57,117.6,3.6-3,7.2-5.4,10.8-8.4,28.8-22.8,50.4-47.4,45.6-109.2-4.2-55.8,13.8-77.4,45.6-77.4h90c22.2,108-110.4,159-175.2,207,86.15,58.92,201.56,122.82,184.8,243h-143.4c20.88-80.08,6.27-171.11-58.2-229.2-64.2,58.02-79.5,149.24-58.2,229.2h-143.4c-16.75-120.21,98.64-184.06,184.8-243-65.4-48-197.4-99-175.2-207Z"/><path class="t" d="M1911.05,545.4h-145.2c48-179.7,48-270.3,0-450h145.2c72,0,217.8-7.8,217.8,110.4,0,90-84.6,117-138.6,117-45,0-64.2-16.2-87.6-16.2-59.1,4.66-3.72,197.13,8.4,238.8Zm-23.4-341.4c0,45.6,20.4,91.2,60.6,91.2,87.29,.19,89.01-180.54,0-180-40.2,0-60.6,43.8-60.6,88.8Z"/><path class="s" d="M2143.85,546c47.94-179.88,48.06-270.78,0-450.6h170.4c-48,83.4-63.6,183.6-63.6,267.6s14.4,162.6,60,162.6c51.6,0,53.4-101.4,124.2-101.4s68.4,97.2,60,121.8h-351Z"/><path class="v" d="M2687.45,87.6c130.8,0,207,106.2,207,232.8,.65,310.53-414.69,310.45-414,0,0-126.6,76.2-232.8,207-232.8Zm-75,308.4c176.83,181.06,345.99,51.75,150.6-150.6-64.5-64-159.44-118.19-217.8-66.6-45,45-12.6,137.4,67.2,217.2Z"/><path class="u" d="M3048.65,95.4h30c75,0,181.8,6,181.8,100.8,0,81.6-78.6,89.4-117,89.4-60.6,0-94.2-18.6-112.8-18.6-7.2,0-17.4,3-17.4,13.2s10.2,15.6,25.8,18.6c34.2,7.2,69.6,4.2,104.4,8.4,42.6,4.8,90.6,21.6,92.4,91.8,1.2,51.6,19.8,127.8,45,146.4h-106.2c-80.4,0,.6-220.8-127.8-224.4-19.67-.48-33,4.27-33,36.6,0,61.8,18,130.2,34.8,187.8h-145.2c48-180.15,48-270.15,0-450h145.2Zm-23.4,96c0,34.8,18.6,65.4,61.2,65.4s59.4-28.8,59.4-63c-1.84-100.47-118.08-107.73-120.6-2.4Z"/><path class="x" d="M3652.84,95.4c8.4,24.6,9,121.2-60,121.2s-72.6-101.4-124.2-101.4c-37.2,0-52.2,42.6-52.2,75,0,53.4,24,81.6,65.4,81.6,18.6,0,40.8-6,66.6-17.4v63c-102.4-30.77-142.4,6.86-139.2,111,0,47.4,10.2,97.2,59.4,97.2,68.4,0,53.4-100.8,127.8-100.8,46.8,0,72,39.6,56.4,121.2h-351c47.94-179.57,48.06-270.47,0-450.6h351Z"/><path class="w" d="M3829.83,95.4h30c75,0,181.8,6,181.8,100.8,0,81.6-78.6,89.4-117,89.4-60.6,0-94.2-18.6-112.8-18.6-7.2,0-17.4,3-17.4,13.2s10.2,15.6,25.8,18.6c34.2,7.2,69.6,4.2,104.4,8.4,42.6,4.8,90.6,21.6,92.4,91.8,1.2,51.6,19.8,127.8,45,146.4h-106.2c-80.4,0,.6-220.8-127.8-224.4-19.67-.48-33,4.27-33,36.6,0,61.8,18,130.2,34.8,187.8h-145.2c48-180.15,48-270.15,0-450h145.2Zm-23.4,96c0,34.8,18.6,65.4,61.2,65.4s59.4-28.8,59.4-63c-1.84-100.47-118.08-107.73-120.6-2.4Z"/><path class="y" d="M4149.02,451.2c28.2,0,51,22.8,51,51-2.64,67.66-99.37,67.64-102,0,0-28.2,22.8-51,51-51Z"/></g></g></svg>